# MagicaVoxel @ Ephtracy

# group
g LunaFlower1

# material
mtllib LunaFlower1.mtl
usemtl palette

# normals
vn -1 0 0
vn 1 0 0
vn 0 0 1
vn 0 0 -1
vn 0 -1 0
vn 0 1 0

# texcoords
vt 0.818359 0.5
vt 0.833984 0.5
vt 0.958984 0.5

# verts
v -6.5 4 2.5
v -6.5 4 1.5
v -6.5 6 2.5
v -6.5 6 1.5
v -4.5 4 5.5
v -4.5 4 4.5
v -4.5 4 -2.5
v -4.5 4 -3.5
v -4.5 5 5.5
v -4.5 5 4.5
v -4.5 6 5.5
v -4.5 6 4.5
v -4.5 6 -2.5
v -4.5 6 -3.5
v -4.5 7 -2.5
v -4.5 7 -3.5
v -2.5 4 4.5
v -2.5 4 3.5
v -2.5 4 0.5
v -2.5 4 -0.5
v -2.5 5 4.5
v -2.5 5 3.5
v -2.5 5 0.5
v -2.5 5 -0.5
v -0.5 4 0.5
v -0.5 4 -0.5
v -0.5 4 -5.5
v -0.5 4 -6.5
v -0.5 5 0.5
v -0.5 5 -0.5
v -0.5 5 -5.5
v -0.5 5 -6.5
v 0.5 4 1.5
v 0.5 4 0.5
v 0.5 5 1.5
v 0.5 5 0.5
v 0.5 5 -0.5
v 0.5 7 0.5
v 0.5 7 -0.5
v 0.5 8 0.5
v 0.5 8 -0.5
v 1.5 4 -1.5
v 1.5 4 -2.5
v 1.5 6 -1.5
v 1.5 6 -2.5
v 2.5 4 4.5
v 2.5 4 3.5
v 2.5 6 4.5
v 2.5 6 3.5
v 3.5 4 0.5
v 3.5 4 -0.5
v 3.5 4 -2.5
v 3.5 4 -3.5
v 3.5 5 0.5
v 3.5 5 -0.5
v 3.5 5 -2.5
v 3.5 5 -3.5
v 3.5 6 -2.5
v 3.5 6 -3.5
v 4.5 4 4.5
v 4.5 4 3.5
v 4.5 6 4.5
v 4.5 6 3.5
v 4.5 7 4.5
v 4.5 7 3.5
v -5.5 4 2.5
v -5.5 4 1.5
v -5.5 6 2.5
v -5.5 6 1.5
v -3.5 4 5.5
v -3.5 4 4.5
v -3.5 5 5.5
v -3.5 5 4.5
v -3.5 5 -2.5
v -3.5 5 -3.5
v -3.5 6 5.5
v -3.5 6 4.5
v -3.5 6 -2.5
v -3.5 6 -3.5
v -3.5 7 -2.5
v -3.5 7 -3.5
v -2.5 4 -2.5
v -2.5 4 -3.5
v -2.5 5 -2.5
v -2.5 5 -3.5
v -1.5 4 4.5
v -1.5 4 3.5
v -1.5 4 0.5
v -1.5 4 -0.5
v -1.5 5 4.5
v -1.5 5 3.5
v -1.5 5 0.5
v -1.5 5 -0.5
v 0.5 4 -5.5
v 0.5 4 -6.5
v 0.5 5 -5.5
v 0.5 5 -6.5
v 1.5 4 1.5
v 1.5 4 -0.5
v 1.5 5 1.5
v 1.5 5 0.5
v 1.5 7 0.5
v 1.5 7 -0.5
v 1.5 8 0.5
v 1.5 8 -0.5
v 2.5 4 -1.5
v 2.5 4 -2.5
v 2.5 6 -1.5
v 2.5 6 -2.5
v 3.5 4 4.5
v 3.5 4 3.5
v 3.5 6 4.5
v 3.5 6 3.5
v 4.5 4 0.5
v 4.5 4 -0.5
v 4.5 4 -2.5
v 4.5 4 -3.5
v 4.5 5 0.5
v 4.5 5 -0.5
v 4.5 5 -2.5
v 4.5 5 -3.5
v 4.5 6 -2.5
v 4.5 6 -3.5
v 5.5 4 4.5
v 5.5 4 3.5
v 5.5 6 4.5
v 5.5 6 3.5
v 5.5 7 4.5
v 5.5 7 3.5
v -4.5 4 5.5
v -4.5 5 5.5
v -4.5 6 5.5
v -3.5 4 5.5
v -3.5 5 5.5
v -3.5 6 5.5
v -2.5 4 4.5
v -2.5 5 4.5
v -1.5 4 4.5
v -1.5 5 4.5
v 2.5 4 4.5
v 2.5 6 4.5
v 3.5 4 4.5
v 3.5 6 4.5
v 4.5 4 4.5
v 4.5 6 4.5
v 4.5 7 4.5
v 5.5 4 4.5
v 5.5 6 4.5
v 5.5 7 4.5
v -6.5 4 2.5
v -6.5 6 2.5
v -5.5 4 2.5
v -5.5 6 2.5
v 0.5 4 1.5
v 0.5 5 1.5
v 1.5 4 1.5
v 1.5 5 1.5
v -2.5 4 0.5
v -2.5 5 0.5
v -1.5 4 0.5
v -1.5 5 0.5
v -0.5 4 0.5
v -0.5 5 0.5
v 0.5 4 0.5
v 0.5 5 0.5
v 0.5 7 0.5
v 0.5 8 0.5
v 1.5 5 0.5
v 1.5 7 0.5
v 1.5 8 0.5
v 3.5 4 0.5
v 3.5 5 0.5
v 4.5 4 0.5
v 4.5 5 0.5
v 1.5 4 -1.5
v 1.5 6 -1.5
v 2.5 4 -1.5
v 2.5 6 -1.5
v -4.5 4 -2.5
v -4.5 6 -2.5
v -4.5 7 -2.5
v -3.5 5 -2.5
v -3.5 6 -2.5
v -3.5 7 -2.5
v -2.5 4 -2.5
v -2.5 5 -2.5
v 3.5 4 -2.5
v 3.5 5 -2.5
v 3.5 6 -2.5
v 4.5 4 -2.5
v 4.5 5 -2.5
v 4.5 6 -2.5
v -0.5 4 -5.5
v -0.5 5 -5.5
v 0.5 4 -5.5
v 0.5 5 -5.5
v -4.5 4 4.5
v -4.5 5 4.5
v -4.5 6 4.5
v -3.5 4 4.5
v -3.5 5 4.5
v -3.5 6 4.5
v -2.5 4 3.5
v -2.5 5 3.5
v -1.5 4 3.5
v -1.5 5 3.5
v 2.5 4 3.5
v 2.5 6 3.5
v 3.5 4 3.5
v 3.5 6 3.5
v 4.5 4 3.5
v 4.5 6 3.5
v 4.5 7 3.5
v 5.5 4 3.5
v 5.5 6 3.5
v 5.5 7 3.5
v -6.5 4 1.5
v -6.5 6 1.5
v -5.5 4 1.5
v -5.5 6 1.5
v -2.5 4 -0.5
v -2.5 5 -0.5
v -1.5 4 -0.5
v -1.5 5 -0.5
v -0.5 4 -0.5
v -0.5 5 -0.5
v 0.5 5 -0.5
v 0.5 7 -0.5
v 0.5 8 -0.5
v 1.5 4 -0.5
v 1.5 7 -0.5
v 1.5 8 -0.5
v 3.5 4 -0.5
v 3.5 5 -0.5
v 4.5 4 -0.5
v 4.5 5 -0.5
v 1.5 4 -2.5
v 1.5 6 -2.5
v 2.5 4 -2.5
v 2.5 6 -2.5
v -4.5 4 -3.5
v -4.5 6 -3.5
v -4.5 7 -3.5
v -3.5 5 -3.5
v -3.5 6 -3.5
v -3.5 7 -3.5
v -2.5 4 -3.5
v -2.5 5 -3.5
v 3.5 4 -3.5
v 3.5 5 -3.5
v 3.5 6 -3.5
v 4.5 4 -3.5
v 4.5 5 -3.5
v 4.5 6 -3.5
v -0.5 4 -6.5
v -0.5 5 -6.5
v 0.5 4 -6.5
v 0.5 5 -6.5
v -4.5 4 5.5
v -3.5 4 5.5
v -4.5 4 4.5
v -3.5 4 4.5
v -2.5 4 4.5
v -1.5 4 4.5
v 2.5 4 4.5
v 3.5 4 4.5
v 4.5 4 4.5
v 5.5 4 4.5
v -2.5 4 3.5
v -1.5 4 3.5
v 2.5 4 3.5
v 3.5 4 3.5
v 4.5 4 3.5
v 5.5 4 3.5
v -6.5 4 2.5
v -5.5 4 2.5
v -6.5 4 1.5
v -5.5 4 1.5
v 0.5 4 1.5
v 1.5 4 1.5
v -2.5 4 0.5
v -1.5 4 0.5
v -0.5 4 0.5
v 0.5 4 0.5
v 3.5 4 0.5
v 4.5 4 0.5
v -2.5 4 -0.5
v -1.5 4 -0.5
v -0.5 4 -0.5
v 1.5 4 -0.5
v 3.5 4 -0.5
v 4.5 4 -0.5
v 1.5 4 -1.5
v 2.5 4 -1.5
v -4.5 4 -2.5
v -2.5 4 -2.5
v 1.5 4 -2.5
v 2.5 4 -2.5
v 3.5 4 -2.5
v 4.5 4 -2.5
v -4.5 4 -3.5
v -2.5 4 -3.5
v 3.5 4 -3.5
v 4.5 4 -3.5
v -0.5 4 -5.5
v 0.5 4 -5.5
v -0.5 4 -6.5
v 0.5 4 -6.5
v -2.5 5 4.5
v -1.5 5 4.5
v -2.5 5 3.5
v -1.5 5 3.5
v 0.5 5 1.5
v 1.5 5 1.5
v -2.5 5 0.5
v -1.5 5 0.5
v -0.5 5 0.5
v 0.5 5 0.5
v 1.5 5 0.5
v 3.5 5 0.5
v 4.5 5 0.5
v -2.5 5 -0.5
v -1.5 5 -0.5
v -0.5 5 -0.5
v 0.5 5 -0.5
v 3.5 5 -0.5
v 4.5 5 -0.5
v -3.5 5 -2.5
v -2.5 5 -2.5
v -3.5 5 -3.5
v -2.5 5 -3.5
v -0.5 5 -5.5
v 0.5 5 -5.5
v -0.5 5 -6.5
v 0.5 5 -6.5
v -4.5 6 5.5
v -3.5 6 5.5
v -4.5 6 4.5
v -3.5 6 4.5
v 2.5 6 4.5
v 3.5 6 4.5
v 2.5 6 3.5
v 3.5 6 3.5
v -6.5 6 2.5
v -5.5 6 2.5
v -6.5 6 1.5
v -5.5 6 1.5
v 1.5 6 -1.5
v 2.5 6 -1.5
v 1.5 6 -2.5
v 2.5 6 -2.5
v 3.5 6 -2.5
v 4.5 6 -2.5
v 3.5 6 -3.5
v 4.5 6 -3.5
v 4.5 7 4.5
v 5.5 7 4.5
v 4.5 7 3.5
v 5.5 7 3.5
v -4.5 7 -2.5
v -3.5 7 -2.5
v -4.5 7 -3.5
v -3.5 7 -3.5
v 0.5 8 0.5
v 1.5 8 0.5
v 0.5 8 -0.5
v 1.5 8 -0.5

# faces
f 3/1/1 2/1/1 1/1/1
f 4/1/1 2/1/1 3/1/1
f 9/2/1 6/2/1 5/2/1
f 10/2/1 6/2/1 9/2/1
f 11/3/1 10/3/1 9/3/1
f 12/3/1 10/3/1 11/3/1
f 13/2/1 8/2/1 7/2/1
f 14/2/1 8/2/1 13/2/1
f 15/3/1 14/3/1 13/3/1
f 16/3/1 14/3/1 15/3/1
f 21/1/1 18/1/1 17/1/1
f 22/1/1 18/1/1 21/1/1
f 23/1/1 20/1/1 19/1/1
f 24/1/1 20/1/1 23/1/1
f 29/2/1 26/2/1 25/2/1
f 30/2/1 26/2/1 29/2/1
f 31/1/1 28/1/1 27/1/1
f 32/1/1 28/1/1 31/1/1
f 35/2/1 34/2/1 33/2/1
f 36/2/1 34/2/1 35/2/1
f 38/2/1 37/2/1 36/2/1
f 39/2/1 37/2/1 38/2/1
f 40/3/1 39/3/1 38/3/1
f 41/3/1 39/3/1 40/3/1
f 44/1/1 43/1/1 42/1/1
f 45/1/1 43/1/1 44/1/1
f 48/1/1 47/1/1 46/1/1
f 49/1/1 47/1/1 48/1/1
f 54/1/1 51/1/1 50/1/1
f 55/1/1 51/1/1 54/1/1
f 56/2/1 53/2/1 52/2/1
f 57/2/1 53/2/1 56/2/1
f 58/3/1 57/3/1 56/3/1
f 59/3/1 57/3/1 58/3/1
f 62/2/1 61/2/1 60/2/1
f 63/2/1 61/2/1 62/2/1
f 64/3/1 63/3/1 62/3/1
f 65/3/1 63/3/1 64/3/1
f 66/1/2 67/1/2 68/1/2
f 68/1/2 67/1/2 69/1/2
f 70/2/2 71/2/2 72/2/2
f 72/2/2 71/2/2 73/2/2
f 72/3/2 73/3/2 76/3/2
f 76/3/2 73/3/2 77/3/2
f 74/2/2 75/2/2 78/2/2
f 78/2/2 75/2/2 79/2/2
f 78/3/2 79/3/2 80/3/2
f 80/3/2 79/3/2 81/3/2
f 82/2/2 83/2/2 84/2/2
f 84/2/2 83/2/2 85/2/2
f 86/1/2 87/1/2 90/1/2
f 90/1/2 87/1/2 91/1/2
f 88/1/2 89/1/2 92/1/2
f 92/1/2 89/1/2 93/1/2
f 94/1/2 95/1/2 96/1/2
f 96/1/2 95/1/2 97/1/2
f 98/2/2 99/2/2 100/2/2
f 100/2/2 99/2/2 101/2/2
f 101/2/2 99/2/2 102/2/2
f 102/2/2 99/2/2 103/2/2
f 102/3/2 103/3/2 104/3/2
f 104/3/2 103/3/2 105/3/2
f 106/1/2 107/1/2 108/1/2
f 108/1/2 107/1/2 109/1/2
f 110/1/2 111/1/2 112/1/2
f 112/1/2 111/1/2 113/1/2
f 114/1/2 115/1/2 118/1/2
f 118/1/2 115/1/2 119/1/2
f 116/2/2 117/2/2 120/2/2
f 120/2/2 117/2/2 121/2/2
f 120/3/2 121/3/2 122/3/2
f 122/3/2 121/3/2 123/3/2
f 124/2/2 125/2/2 126/2/2
f 126/2/2 125/2/2 127/2/2
f 126/3/2 127/3/2 128/3/2
f 128/3/2 127/3/2 129/3/2
f 133/2/3 131/2/3 130/2/3
f 134/3/3 132/3/3 131/3/3
f 134/2/3 131/2/3 133/2/3
f 135/3/3 132/3/3 134/3/3
f 138/1/3 137/1/3 136/1/3
f 139/1/3 137/1/3 138/1/3
f 142/1/3 141/1/3 140/1/3
f 143/1/3 141/1/3 142/1/3
f 147/2/3 145/2/3 144/2/3
f 148/3/3 146/3/3 145/3/3
f 148/2/3 145/2/3 147/2/3
f 149/3/3 146/3/3 148/3/3
f 152/1/3 151/1/3 150/1/3
f 153/1/3 151/1/3 152/1/3
f 156/2/3 155/2/3 154/2/3
f 157/2/3 155/2/3 156/2/3
f 160/1/3 159/1/3 158/1/3
f 161/1/3 159/1/3 160/1/3
f 164/2/3 163/2/3 162/2/3
f 165/2/3 163/2/3 164/2/3
f 168/2/3 166/2/3 165/2/3
f 169/3/3 167/3/3 166/3/3
f 169/2/3 166/2/3 168/2/3
f 170/3/3 167/3/3 169/3/3
f 173/1/3 172/1/3 171/1/3
f 174/1/3 172/1/3 173/1/3
f 177/1/3 176/1/3 175/1/3
f 178/1/3 176/1/3 177/1/3
f 182/2/3 180/2/3 179/2/3
f 183/3/3 181/3/3 180/3/3
f 183/2/3 180/2/3 182/2/3
f 184/3/3 181/3/3 183/3/3
f 185/2/3 182/2/3 179/2/3
f 186/2/3 182/2/3 185/2/3
f 190/2/3 188/2/3 187/2/3
f 191/3/3 189/3/3 188/3/3
f 191/2/3 188/2/3 190/2/3
f 192/3/3 189/3/3 191/3/3
f 195/1/3 194/1/3 193/1/3
f 196/1/3 194/1/3 195/1/3
f 197/2/4 198/2/4 200/2/4
f 198/3/4 199/3/4 201/3/4
f 200/2/4 198/2/4 201/2/4
f 201/3/4 199/3/4 202/3/4
f 203/1/4 204/1/4 205/1/4
f 205/1/4 204/1/4 206/1/4
f 207/1/4 208/1/4 209/1/4
f 209/1/4 208/1/4 210/1/4
f 211/2/4 212/2/4 214/2/4
f 212/3/4 213/3/4 215/3/4
f 214/2/4 212/2/4 215/2/4
f 215/3/4 213/3/4 216/3/4
f 217/1/4 218/1/4 219/1/4
f 219/1/4 218/1/4 220/1/4
f 221/1/4 222/1/4 223/1/4
f 223/1/4 222/1/4 224/1/4
f 225/2/4 226/2/4 227/2/4
f 225/2/4 227/2/4 230/2/4
f 227/2/4 228/2/4 230/2/4
f 228/3/4 229/3/4 231/3/4
f 230/2/4 228/2/4 231/2/4
f 231/3/4 229/3/4 232/3/4
f 233/1/4 234/1/4 235/1/4
f 235/1/4 234/1/4 236/1/4
f 237/1/4 238/1/4 239/1/4
f 239/1/4 238/1/4 240/1/4
f 241/2/4 242/2/4 244/2/4
f 242/3/4 243/3/4 245/3/4
f 244/2/4 242/2/4 245/2/4
f 245/3/4 243/3/4 246/3/4
f 241/2/4 244/2/4 247/2/4
f 247/2/4 244/2/4 248/2/4
f 249/2/4 250/2/4 252/2/4
f 250/3/4 251/3/4 253/3/4
f 252/2/4 250/2/4 253/2/4
f 253/3/4 251/3/4 254/3/4
f 255/1/4 256/1/4 257/1/4
f 257/1/4 256/1/4 258/1/4
f 261/2/5 260/2/5 259/2/5
f 262/2/5 260/2/5 261/2/5
f 269/1/5 264/1/5 263/1/5
f 270/1/5 264/1/5 269/1/5
f 271/1/5 266/1/5 265/1/5
f 272/1/5 266/1/5 271/1/5
f 273/2/5 268/2/5 267/2/5
f 274/2/5 268/2/5 273/2/5
f 277/1/5 276/1/5 275/1/5
f 278/1/5 276/1/5 277/1/5
f 284/2/5 280/2/5 279/2/5
f 287/1/5 282/1/5 281/1/5
f 288/1/5 282/1/5 287/1/5
f 289/2/5 284/2/5 283/2/5
f 290/2/5 280/2/5 284/2/5
f 290/2/5 284/2/5 289/2/5
f 291/1/5 286/1/5 285/1/5
f 292/1/5 286/1/5 291/1/5
f 297/1/5 294/1/5 293/1/5
f 298/1/5 294/1/5 297/1/5
f 301/2/5 296/2/5 295/2/5
f 302/2/5 296/2/5 301/2/5
f 303/2/5 300/2/5 299/2/5
f 304/2/5 300/2/5 303/2/5
f 307/1/5 306/1/5 305/1/5
f 308/1/5 306/1/5 307/1/5
f 309/1/6 310/1/6 311/1/6
f 311/1/6 310/1/6 312/1/6
f 313/2/6 314/2/6 318/2/6
f 318/2/6 314/2/6 319/2/6
f 315/1/6 316/1/6 322/1/6
f 322/1/6 316/1/6 323/1/6
f 317/2/6 318/2/6 324/2/6
f 324/2/6 318/2/6 325/2/6
f 320/1/6 321/1/6 326/1/6
f 326/1/6 321/1/6 327/1/6
f 328/2/6 329/2/6 330/2/6
f 330/2/6 329/2/6 331/2/6
f 332/1/6 333/1/6 334/1/6
f 334/1/6 333/1/6 335/1/6
f 336/3/6 337/3/6 338/3/6
f 338/3/6 337/3/6 339/3/6
f 340/1/6 341/1/6 342/1/6
f 342/1/6 341/1/6 343/1/6
f 344/1/6 345/1/6 346/1/6
f 346/1/6 345/1/6 347/1/6
f 348/1/6 349/1/6 350/1/6
f 350/1/6 349/1/6 351/1/6
f 352/3/6 353/3/6 354/3/6
f 354/3/6 353/3/6 355/3/6
f 356/3/6 357/3/6 358/3/6
f 358/3/6 357/3/6 359/3/6
f 360/3/6 361/3/6 362/3/6
f 362/3/6 361/3/6 363/3/6
f 364/3/6 365/3/6 366/3/6
f 366/3/6 365/3/6 367/3/6
